# Blender v2.93.14 OBJ File: 'nana.blend'
# www.blender.org
mtllib nana.mtl
o Cylinder
v -0.156857 -0.608813 0.495051
v -0.130580 -0.617179 0.493556
v 0.160671 -0.620751 0.490304
v 0.189491 -0.610461 0.490615
v 0.204716 -0.586522 0.487480
v 0.199502 -0.259751 0.460655
v 0.193693 -0.238029 0.457378
v 0.177618 -0.233309 0.459114
v -0.116422 -0.229335 0.462378
v -0.139171 -0.229715 0.461907
v -0.153960 -0.256082 0.464842
v -0.168896 -0.587256 0.491559
v 0.178282 -0.233555 0.575189
v 0.029284 -0.158658 0.459154
v -0.113305 -0.233215 0.578470
v 0.031063 -0.159299 0.575558
v 0.015270 -0.658102 0.492136
v -0.178100 -0.441960 0.478085
v 0.218209 -0.440643 0.474179
v -0.143911 -0.551569 0.835937
v -0.119288 -0.559535 0.834742
v 0.019724 -0.601620 0.833697
v 0.158355 -0.562585 0.832364
v 0.185453 -0.552973 0.832640
v 0.200728 -0.533039 0.830112
v 0.217778 -0.407885 0.819339
v 0.202639 -0.265825 0.808342
v 0.195248 -0.247830 0.805658
v 0.180835 -0.243199 0.807063
v 0.033701 -0.176078 0.807432
v -0.107095 -0.244300 0.809396
v -0.128171 -0.244955 0.808997
v -0.142600 -0.267188 0.811366
v -0.164536 -0.408884 0.822118
v -0.155430 -0.533673 0.833086
v -0.091758 -0.495738 1.013195
v -0.074432 -0.501459 1.012046
v 0.023371 -0.531686 1.010855
v 0.120906 -0.503650 1.009398
v 0.139970 -0.496746 1.009611
v 0.150720 -0.482429 1.007236
v 0.162732 -0.392541 0.997191
v 0.152099 -0.290510 0.986989
v 0.146903 -0.277587 0.984505
v 0.136761 -0.274260 0.985834
v 0.033245 -0.226052 0.986409
v -0.065814 -0.275051 0.988455
v -0.080641 -0.275522 0.988118
v -0.090797 -0.291489 0.990344
v -0.106246 -0.393259 1.000377
v -0.099857 -0.482884 1.010562
v -0.011959 -0.424305 1.146757
v -0.005796 -0.427228 1.145530
v 0.028973 -0.442669 1.143902
v 0.063648 -0.428347 1.142008
v 0.070423 -0.424820 1.142136
v 0.074255 -0.417506 1.139713
v 0.078569 -0.371587 1.129615
v 0.074836 -0.319464 1.119461
v 0.073000 -0.312862 1.117000
v 0.069389 -0.311163 1.118374
v 0.032592 -0.286536 1.119412
v -0.002627 -0.311567 1.121902
v -0.007895 -0.311807 1.121631
v -0.011515 -0.319965 1.123902
v -0.017052 -0.371954 1.134004
v -0.014826 -0.417739 1.144160
v -0.001289 -0.402386 1.188614
v 0.003637 -0.404566 1.187462
v 0.031418 -0.416083 1.185908
v 0.059124 -0.405401 1.184107
v 0.064537 -0.402771 1.184220
v 0.067601 -0.397316 1.181953
v 0.071058 -0.363069 1.172517
v 0.068084 -0.324195 1.163035
v 0.066620 -0.319271 1.160738
v 0.063733 -0.318003 1.162025
v 0.034333 -0.299636 1.163030
v 0.006191 -0.318305 1.165389
v 0.001981 -0.318484 1.165140
v -0.000913 -0.324568 1.167265
v -0.005346 -0.363342 1.176706
v -0.003577 -0.397489 1.186190
v -0.134014 -0.601480 0.105024
v -0.160292 -0.592980 0.106519
v 0.011835 -0.647795 0.103604
v 0.186056 -0.594654 0.102083
v 0.157236 -0.605109 0.101772
v 0.201282 -0.570330 0.098948
v 0.214775 -0.422105 0.085647
v 0.190258 -0.216233 0.068846
v 0.196068 -0.238305 0.072123
v 0.174184 -0.211437 0.070582
v 0.025849 -0.135585 0.070622
v -0.142606 -0.207785 0.073375
v -0.119857 -0.207398 0.073846
v -0.157394 -0.234576 0.076310
v -0.181535 -0.423443 0.089553
v -0.172331 -0.571076 0.103027
v -0.138532 -0.539503 -0.307098
v -0.164809 -0.529901 -0.305604
v 0.007318 -0.591821 -0.308518
v 0.181539 -0.531792 -0.310040
v 0.152719 -0.543602 -0.310350
v 0.196764 -0.504316 -0.313174
v 0.210257 -0.336881 -0.326475
v 0.185740 -0.104329 -0.343277
v 0.191550 -0.129261 -0.339999
v 0.169666 -0.098912 -0.341540
v 0.021332 -0.013230 -0.341500
v -0.147124 -0.094786 -0.338747
v -0.124375 -0.094350 -0.338276
v -0.161912 -0.125049 -0.335812
v -0.186053 -0.338393 -0.322569
v -0.176849 -0.505158 -0.309095
v -0.142402 -0.386072 -0.705630
v -0.168680 -0.374199 -0.704136
v 0.003447 -0.450763 -0.707050
v 0.177668 -0.376538 -0.708572
v 0.148848 -0.391141 -0.708882
v 0.192894 -0.342564 -0.711706
v 0.206387 -0.135530 -0.725007
v 0.181870 0.152020 -0.741808
v 0.187679 0.121192 -0.738531
v 0.165795 0.158719 -0.740072
v 0.017461 0.264665 -0.740032
v -0.150994 0.163820 -0.737279
v -0.128245 0.164359 -0.736808
v -0.165782 0.126400 -0.734344
v -0.189923 -0.137400 -0.721101
v -0.180719 -0.343604 -0.707627
v -0.144833 -0.082924 -1.090019
v -0.171132 -0.072496 -1.085471
v 0.001134 -0.141430 -1.108319
v 0.175219 -0.072907 -1.090277
v 0.146425 -0.086225 -1.094413
v 0.190382 -0.041040 -1.084386
v 0.203494 0.151548 -1.042915
v 0.178450 0.418537 -0.983713
v 0.184316 0.389546 -0.988636
v 0.162364 0.424192 -0.980285
v 0.013837 0.520746 -0.952499
v -0.154434 0.427594 -0.976332
v -0.131686 0.428008 -0.975731
v -0.169153 0.392629 -0.983319
v -0.192810 0.148159 -1.039736
v -0.183227 -0.043676 -1.080817
v -0.109729 0.296883 -1.267517
v -0.132885 0.302640 -1.244359
v 0.000165 0.263867 -1.295065
v 0.131143 0.303113 -1.244681
v 0.109374 0.295552 -1.272846
v 0.142085 0.321569 -1.214407
v 0.151669 0.432466 -1.143034
v 0.132441 0.586004 -1.042332
v 0.136894 0.569184 -1.051787
v 0.120328 0.589029 -1.038030
v 0.008452 0.643821 -1.022985
v -0.117985 0.590447 -1.033077
v -0.100874 0.590650 -1.032455
v -0.129007 0.570251 -1.045480
v -0.146442 0.429850 -1.139791
v -0.138956 0.319380 -1.210696
v -0.029011 0.702377 -1.141647
v -0.032875 0.704611 -1.137836
v 0.000396 0.688397 -1.160510
v 0.020626 0.693703 -1.153947
v 0.015937 0.692630 -1.155647
v 0.023469 0.698934 -1.149005
v 0.035686 0.732011 -1.113865
v 0.036225 0.778985 -1.062766
v 0.036780 0.773464 -1.067934
v 0.033386 0.780059 -1.060296
v 0.007780 0.800480 -1.033836
v -0.025371 0.790791 -1.045371
v -0.021125 0.789980 -1.046067
v -0.028773 0.785094 -1.051052
v -0.037968 0.744130 -1.096651
v -0.034307 0.710363 -1.132520
v -0.028502 0.818947 -1.121535
v -0.032181 0.818725 -1.118524
v 0.001108 0.820337 -1.136431
v 0.018758 0.819810 -1.131248
v 0.014293 0.819916 -1.132590
v 0.021465 0.819289 -1.127344
v 0.026347 0.815999 -1.099591
v 0.026775 0.811327 -1.059235
v 0.027215 0.811876 -1.063316
v 0.024526 0.811220 -1.057284
v 0.004234 0.809189 -1.036387
v -0.022037 0.810153 -1.045497
v -0.018672 0.810233 -1.046047
v -0.024733 0.810719 -1.049984
v -0.032020 0.814794 -1.085998
v -0.033545 0.818152 -1.114326
v -0.006548 0.389300 -1.269522
vt 0.875000 1.000000
vt 0.875000 0.500000
vt 0.916667 0.500000
vt 0.916667 1.000000
vt 0.058012 0.792718
vt 0.087139 0.861502
vt 0.082873 0.862963
vt 0.051033 0.796701
vt 0.094136 0.774088
vt 0.128288 0.883430
vt 0.099129 0.903463
vt 0.155722 0.788462
vt 0.166531 0.861517
vt 0.163050 0.861907
vt 0.144918 0.750261
vt 0.149313 0.749545
vt 0.196530 0.778045
vt 0.192019 0.738376
vt 0.234872 0.731239
vt 0.238214 0.772177
vt 0.242901 0.853434
vt 0.203557 0.853136
vt 0.166667 1.000000
vt 0.166667 0.500000
vt 0.250000 0.500000
vt 0.250000 1.000000
vt 0.139388 0.753196
vt 0.118627 0.613630
vt 0.124518 0.610015
vt 0.125000 1.000000
vt 0.125000 0.500000
vt 0.240902 0.729920
vt 0.248487 0.852872
vt 0.916667 0.500000
vt 0.916667 0.500000
vt 1.000000 0.500000
vt 1.000000 0.500000
vt 0.158944 0.864404
vt 0.750000 1.000000
vt 0.750000 0.500000
vt 0.833333 0.500000
vt 0.833333 1.000000
vt 1.000000 0.500000
vt 0.000000 1.000000
vt 0.000000 0.500000
vt 0.083333 0.500000
vt 0.083333 1.000000
vt 1.000000 1.000000
vt 1.000000 1.000000
vt 0.916667 1.000000
vt 0.166667 0.500000
vt 0.250000 0.500000
vt 0.237677 0.917651
vt 0.233796 0.917877
vt 0.750000 0.500000
vt 0.833333 0.500000
vt 0.083333 0.500000
vt 0.125000 0.500000
vt 0.112234 0.930177
vt 0.109459 0.931852
vt 0.000000 0.500000
vt 0.172832 0.919010
vt 0.151757 0.937103
vt 0.205797 0.912784
vt 0.178264 0.916916
vt 0.175714 0.916665
vt 0.132773 0.956630
vt 0.875000 0.500000
vt 0.197088 0.917159
vt 0.250000 0.500000
vt 0.333333 0.500000
vt 0.194399 0.917593
vt 0.375000 0.500000
vt 0.833333 0.500000
vt 0.875000 0.500000
vt 1.000000 1.000000
vt 0.916667 1.000000
vt 0.166667 0.500000
vt 0.750000 0.500000
vt 0.083333 0.500000
vt 0.125000 0.500000
vt 0.138263 0.982572
vt 0.137091 0.983792
vt 0.000000 0.500000
vt 0.188925 0.966272
vt 0.178295 0.978873
vt 0.202964 0.963233
vt 0.191317 0.964877
vt 0.190269 0.964515
vt 0.169622 0.991251
vt 0.157809 0.971873
vt 0.166058 0.972483
vt 0.165194 0.989876
vt 0.158738 0.989331
vt 0.154914 0.972752
vt 0.156022 0.971697
vt 0.158974 0.989307
vt 0.158201 0.990284
vt 0.186725 0.990149
vt 0.180546 0.999950
vt 0.500000 0.500000
vt 0.416667 0.500000
vt 0.416667 0.500000
vt 0.500000 0.500000
vt 0.875000 0.500000
vt 0.916667 0.500000
vt 0.333333 0.500000
vt 0.375000 0.500000
vt 1.000000 0.500000
vt 0.125000 0.500000
vt 0.166667 0.500000
vt 0.250000 0.500000
vt 0.833333 0.500000
vt 0.750000 0.500000
vt 0.083333 0.500000
vt 0.146538 0.998890
vt 0.145686 0.999955
vt 0.000000 0.500000
vt 0.145905 0.977641
vt 0.151864 0.994582
vt 0.166667 1.000000
vt 0.125000 1.000000
vt 0.026214 0.662618
vt 0.033323 0.658744
vt 0.220236 0.593766
vt 0.226246 0.592582
vt 0.875000 1.000000
vt 0.833333 1.000000
vt 0.083333 1.000000
vt 0.070668 0.638460
vt 0.129260 0.609402
vt 0.000000 1.000000
vt 0.250000 1.000000
vt 0.750000 1.000000
vt 0.175462 0.596499
vt 0.125000 1.000000
vt 0.083333 1.000000
vt 0.014091 0.513307
vt 0.054879 0.486064
vt 0.118971 0.445090
vt 0.167249 0.430843
vt 0.107672 0.450526
vt 0.212166 0.443449
vt 0.218138 0.443222
vt 0.875000 1.000000
vt 1.000000 1.000000
vt 0.916667 1.000000
vt 0.250000 1.000000
vt 0.166667 1.000000
vt 0.833333 1.000000
vt 0.750000 1.000000
vt 0.006542 0.518058
vt 0.000000 1.000000
vt 0.114047 0.445420
vt 0.250000 1.000000
vt 0.166667 1.000000
vt 0.125000 1.000000
vt 0.083333 1.000000
vt 0.833333 1.000000
vt 0.750000 1.000000
vt 0.000050 0.367421
vt 0.008757 0.360983
vt 0.000000 1.000000
vt 0.056911 0.321618
vt 0.179619 0.244173
vt 0.220287 0.278148
vt 0.117307 0.268774
vt 0.124313 0.261401
vt 0.875000 1.000000
vt 0.129299 0.261250
vt 0.226157 0.279148
vt 0.166667 1.000000
vt 0.125000 1.000000
vt 0.078956 0.169488
vt 0.138415 0.137490
vt 0.020593 0.195640
vt 0.029715 0.192356
vt 0.083333 1.000000
vt 0.000000 1.000000
vt 0.198238 0.123485
vt 0.237347 0.156822
vt 0.145433 0.132435
vt 0.875000 1.000000
vt 0.833333 1.000000
vt 0.150064 0.133056
vt 0.243075 0.158326
vt 0.916667 1.000000
vt 1.000000 1.000000
vt 1.000000 1.000000
vt 0.916667 1.000000
vt 0.250000 1.000000
vt 0.750000 1.000000
vt 0.165171 0.079651
vt 0.170299 0.078745
vt 0.166667 1.000000
vt 0.125000 1.000000
vt 0.063730 0.000045
vt 0.068703 0.020125
vt 0.173686 0.079316
vt 0.083333 1.000000
vt 0.207255 0.072664
vt 0.123448 0.081497
vt 0.333333 1.000000
vt 0.250000 1.000000
vt 0.875000 1.000000
vt 0.073870 0.036812
vt 0.079768 0.075378
vt 0.088788 0.080715
vt 0.000000 1.000000
vt 0.235355 0.095876
vt 0.089528 0.006076
vt 0.151061 0.036583
vt 0.151011 0.042077
vt 0.375000 1.000000
vt 0.333333 1.000000
vt 0.180316 0.086934
vt 0.181323 0.088096
vt 0.125000 1.000000
vt 0.083333 1.000000
vt 0.193461 0.098928
vt 0.194044 0.020442
vt 0.209888 0.026523
vt 0.250000 1.000000
vt 0.916667 1.000000
vt 0.875000 1.000000
vt 0.875000 1.000000
vt 0.166667 1.000000
vt 0.148789 0.041187
vt 0.148826 0.042797
vt 0.151033 0.043691
vt 0.152453 0.046382
vt 0.077856 0.041320
vt 0.000000 1.000000
vt 0.181691 0.014383
vt 0.211853 0.026964
vt 0.250000 1.000000
vt 0.166667 1.000000
vt 0.175232 0.051442
vt 0.174804 0.052600
vt 0.125000 1.000000
vt 0.175345 0.054568
vt 0.083333 1.000000
vt 0.000000 1.000000
vt 0.212002 0.000050
vt 0.214959 0.009022
vt 0.375000 1.000000
vt 0.333333 1.000000
vt 0.219150 0.020237
vt 0.219656 0.021505
vt 0.176273 0.047989
vt 0.179450 0.086826
vt 0.178435 0.085675
vt 0.185001 0.085415
vt 0.185746 0.086284
vt 0.187638 0.087611
vt 0.194638 0.097181
vt 1.000000 1.000000
vt 1.000000 1.000000
vt 0.916667 1.000000
vt 0.875000 1.000000
vt 0.750000 0.490000
vt 0.870000 0.457846
vt 0.913923 0.413923
vt 0.957846 0.370000
vt 0.990000 0.250000
vt 0.957846 0.130000
vt 0.913923 0.086077
vt 0.870000 0.042154
vt 0.750000 0.010000
vt 0.630000 0.042154
vt 0.586077 0.086077
vt 0.542154 0.130000
vt 0.510000 0.250000
vt 0.542154 0.370000
vt 0.586077 0.413923
vt 0.630000 0.457846
vt 0.186748 0.050690
vt 0.188378 0.051613
vt 0.189855 0.053402
vt 0.195982 0.068429
vt 0.199884 0.088269
vt 0.199834 0.090744
vt 0.198984 0.090677
vt 0.186899 0.086733
vt 0.186340 0.084815
vt 0.180025 0.067264
vn -0.2746 -0.9473 0.1647
vn 0.8230 -0.5592 0.1003
vn 0.9937 -0.1102 0.0202
vn 0.3745 0.9269 0.0234
vn -0.4448 0.8942 0.0503
vn -0.8538 0.5185 0.0472
vn 0.9663 0.2572 0.0058
vn -0.9895 0.1415 0.0312
vn 0.4386 0.8982 0.0304
vn -0.0501 0.9977 0.0448
vn -0.2347 -0.7926 0.5628
vn 0.9489 0.3155 0.0008
vn 0.3295 -0.9304 0.1604
vn -0.2710 -0.8924 0.3608
vn -0.8610 -0.4958 0.1138
vn -0.3072 -0.9510 -0.0359
vn 0.9946 0.1036 -0.0079
vn -0.7851 0.5414 0.3007
vn -0.0345 0.9836 0.1769
vn 0.3110 -0.8799 0.3591
vn -0.9496 -0.0379 0.3110
vn 0.7654 -0.5292 0.3661
vn -0.8089 -0.4482 0.3804
vn 0.9504 0.1251 0.2848
vn 0.4055 0.8793 0.2497
vn 0.8648 0.4023 0.3005
vn 0.9490 -0.0993 0.2993
vn 0.3234 0.9155 0.2393
vn -0.2694 -0.8934 0.3595
vn -0.4224 0.8727 0.2449
vn -0.9406 0.1695 0.2940
vn 0.2596 -0.8993 0.3520
vn -0.9969 -0.0633 0.0473
vn -0.0425 0.9582 0.2829
vn -0.4330 0.8096 0.3963
vn 0.2685 -0.7950 0.5439
vn -0.3296 -0.9340 -0.1381
vn -0.6981 0.4950 0.5174
vn 0.3013 -0.7651 0.5690
vn -0.8414 0.0275 0.5397
vn 0.7262 -0.3596 0.5859
vn -0.7546 -0.2643 0.6006
vn 0.8427 0.1469 0.5180
vn 0.4248 0.8093 0.4056
vn 0.7495 0.4029 0.5253
vn 0.8513 -0.0246 0.5242
vn 0.3832 0.8189 0.4273
vn -0.2601 -0.7894 0.5560
vn -0.8295 0.1824 0.5279
vn 0.5370 0.8168 0.2107
vn 0.9229 0.3394 0.1821
vn 0.9822 -0.0512 0.1807
vn 0.4724 0.8594 0.1954
vn -0.3176 -0.7975 0.5129
vn -0.5370 0.8061 0.2487
vn -0.2703 -0.8216 0.5020
vn -0.9577 0.1571 0.2409
vn -0.0526 0.9852 0.1632
vn 0.3505 -0.8032 0.4817
vn -0.8453 0.4668 0.2599
vn 0.3903 -0.7911 0.4711
vn -0.9664 0.0148 0.2568
vn 0.8793 -0.3605 0.3113
vn -0.8998 -0.2472 0.3594
vn 0.9818 0.1063 0.1573
vn 0.2581 -0.9530 0.1590
vn -0.9915 0.1288 0.0154
vn 0.8436 -0.5361 -0.0295
vn -0.0180 0.9982 0.0565
vn -0.2867 -0.9576 -0.0295
vn 0.2648 -0.9637 -0.0345
vn -0.9980 -0.0622 0.0060
vn 0.9948 0.1018 -0.0036
vn 0.2885 0.9561 0.0512
vn -0.8738 -0.4861 -0.0123
vn 0.9956 -0.0925 -0.0129
vn -0.8717 0.4889 0.0350
vn 0.3387 -0.9400 -0.0410
vn 0.4519 0.8908 0.0475
vn -0.4376 0.8974 0.0558
vn -0.9983 -0.0584 0.0002
vn 0.9958 -0.0874 -0.0270
vn 0.4645 0.8530 0.2380
vn 0.9953 0.0959 0.0117
vn -0.0229 0.9641 0.2646
vn -0.3187 -0.9388 -0.1308
vn -0.3729 -0.8663 -0.3324
vn -0.8738 0.4669 0.1356
vn 0.3580 -0.9227 -0.1431
vn -0.9918 0.1217 0.0396
vn 0.8538 -0.5128 -0.0895
vn -0.8829 -0.4652 -0.0631
vn -0.4455 0.8595 0.2504
vn 0.9674 0.2469 0.0556
vn 0.2939 -0.9458 -0.1380
vn 0.3175 0.9158 0.2459
vn -0.8741 0.4052 0.2678
vn -0.9987 -0.0502 -0.0132
vn 0.3956 -0.8555 -0.3341
vn -0.9922 0.1042 0.0688
vn 0.8723 -0.4514 -0.1880
vn -0.8986 -0.4105 -0.1547
vn 0.9962 -0.0749 -0.0438
vn -0.4491 0.7392 0.5020
vn 0.9677 0.2167 0.1284
vn 0.3246 -0.8866 -0.3296
vn 0.3516 0.7883 0.5049
vn 0.4737 0.7331 0.4880
vn 0.9959 0.0824 0.0370
vn -0.0292 0.8383 0.5444
vn -0.3553 -0.8779 -0.3209
vn -0.9919 0.0853 0.0939
vn 0.9957 0.0714 0.0589
vn 0.8664 -0.3867 -0.3159
vn -0.8917 -0.3568 -0.2786
vn 0.9962 -0.0620 -0.0607
vn -0.4358 0.5868 0.6824
vn 0.9653 0.1833 0.1860
vn 0.3190 -0.7461 -0.5844
vn 0.3532 0.6307 0.6910
vn -0.9985 -0.0450 -0.0303
vn 0.4616 0.5850 0.6668
vn -0.0315 0.6710 0.7408
vn -0.3510 -0.7395 -0.5744
vn -0.5390 -0.2986 -0.7876
vn -0.8663 0.3323 0.3729
vn 0.3928 -0.7193 -0.5730
vn 0.9691 0.2384 -0.0640
vn -0.9832 0.1472 -0.1077
vn 0.2602 -0.3960 -0.8806
vn 0.3533 0.3912 0.8498
vn -0.9643 0.0424 -0.2613
vn 0.3832 0.4277 0.8186
vn 0.9747 0.1520 -0.1639
vn -0.0341 0.3353 0.9415
vn -0.2961 -0.3914 -0.8713
vn -0.8986 0.3104 0.3100
vn 0.5949 -0.2690 -0.7574
vn 0.8606 -0.0857 -0.5020
vn -0.9228 -0.0464 -0.3824
vn 0.9528 0.0406 -0.3009
vn -0.3419 0.4074 0.8468
vn 0.2108 0.2982 -0.9309
vn -0.2044 0.1122 0.9724
vn 0.4617 0.3125 0.8302
vn -0.7857 0.3277 -0.5247
vn 0.3736 0.1808 0.9098
vn 0.8396 0.3704 -0.3973
vn 0.0053 0.0624 0.9980
vn -0.3046 0.3035 -0.9028
vn -0.8993 0.4226 0.1123
vn 0.6500 0.3468 -0.6761
vn -0.8767 0.3678 -0.3099
vn 0.7756 0.3396 -0.5320
vn -0.8845 0.3096 -0.3489
vn 0.7250 0.3353 -0.6016
vn 0.8628 0.3977 -0.3121
vn -0.8783 0.1344 0.4589
vn 0.2941 0.1738 -0.9399
vn -0.9834 0.0824 0.1614
vn 0.8125 0.1156 -0.5714
vn -0.9487 0.0588 -0.3108
vn 0.9455 0.1066 -0.3075
vn -0.3984 0.0649 0.9149
vn 0.9639 0.2634 -0.0378
vn 0.2644 0.1735 -0.9487
vn 0.6640 0.1153 0.7388
vn -0.9974 0.0464 -0.0552
vn 0.7419 0.2235 0.6322
vn -0.6453 0.1320 -0.7524
vn 0.9810 0.1668 -0.0992
vn 0.1597 -0.0207 0.9870
vn -0.4649 0.1572 -0.8713
vn -0.2930 -0.9411 0.1689
vn -0.3749 -0.7286 -0.5732
vn -0.6112 0.3422 -0.7137
vn 0.0563 0.2219 0.9734
vn 0.0062 0.9936 0.1126
usemtl Material.003
s off
f 17/1/1 22/2/1 21/3/1 2/4/1
f 5/5/2 25/6/2 24/7/2 4/8/2
f 19/9/3 26/10/3 25/11/3 5/5/3
f 13/12/4 29/13/4 28/14/4 7/15/4 8/16/4
f 16/17/5 14/18/5 9/19/5 15/20/5 31/21/5 30/22/5
f 11/23/6 33/24/6 32/25/6 10/26/6
f 6/27/7 92/28/7 91/29/7 7/15/7
f 18/30/8 34/31/8 33/24/8 11/23/8
f 16/17/9 30/22/9 29/13/9 13/12/9 8/16/9 14/18/9
f 10/32/10 32/33/10 31/21/10 15/20/10 9/19/10
f 37/34/11 53/35/11 52/36/11 36/37/11
f 7/15/12 28/14/12 27/38/12 6/27/12
f 4/39/13 24/40/13 23/41/13 3/42/13
f 21/3/14 37/34/14 36/37/14 20/43/14
f 1/44/15 20/45/15 35/46/15 12/47/15
f 1/48/16 85/49/16 84/50/16 2/4/16
f 6/27/17 27/38/17 26/10/17 19/9/17
f 33/24/18 49/51/18 48/52/18 32/25/18
f 32/33/19 48/53/19 47/54/19 31/21/19
f 24/40/20 40/55/20 39/56/20 23/41/20
f 35/46/21 51/57/21 50/58/21 34/31/21
f 25/6/22 41/59/22 40/60/22 24/7/22
f 20/45/23 36/61/23 51/57/23 35/46/23
f 27/38/24 43/62/24 42/63/24 26/10/24
f 30/22/25 46/64/25 45/65/25 29/13/25
f 28/14/26 44/66/26 43/62/26 27/38/26
f 26/10/27 42/63/27 41/67/27 25/11/27
f 29/13/28 45/65/28 44/66/28 28/14/28
f 22/2/29 38/68/29 37/34/29 21/3/29
f 30/22/30 31/21/30 47/54/30 46/64/30
f 34/31/31 50/58/31 49/51/31 33/24/31
f 23/41/32 39/56/32 38/68/32 22/2/32
f 12/47/33 35/46/33 34/31/33 18/30/33
f 48/69/34 64/70/34 63/71/34 47/72/34
f 47/54/35 63/71/35 62/73/35 46/64/35
f 39/56/36 55/74/36 54/75/36 38/68/36
f 85/49/37 101/76/37 100/77/37 84/50/37
f 49/51/38 65/78/38 64/70/38 48/52/38
f 40/55/39 56/79/39 55/74/39 39/56/39
f 51/57/40 67/80/40 66/81/40 50/58/40
f 41/59/41 57/82/41 56/83/41 40/60/41
f 36/61/42 52/84/42 67/80/42 51/57/42
f 43/62/43 59/85/43 58/86/43 42/63/43
f 46/64/44 62/87/44 61/88/44 45/65/44
f 44/66/45 60/89/45 59/85/45 43/62/45
f 42/63/46 58/86/46 57/90/46 41/67/46
f 44/66/47 45/65/47 61/88/47 60/89/47
f 38/68/48 54/75/48 53/35/48 37/34/48
f 50/58/49 66/81/49 65/78/49 49/51/49
f 61/91/50 62/92/50 78/93/50 77/94/50
f 59/95/51 60/96/51 76/97/51 75/98/51
f 57/90/52 58/86/52 74/99/52 73/100/52
f 60/101/53 61/102/53 77/103/53 76/104/53
f 53/35/54 54/75/54 70/105/54 69/106/54
f 62/73/55 63/71/55 79/107/55 78/108/55
f 52/36/56 53/35/56 69/106/56 68/109/56
f 65/78/57 66/81/57 82/110/57 81/111/57
f 63/71/58 64/70/58 80/112/58 79/107/58
f 54/75/59 55/74/59 71/113/59 70/105/59
f 64/70/60 65/78/60 81/111/60 80/112/60
f 55/74/61 56/79/61 72/114/61 71/113/61
f 66/81/62 67/80/62 83/115/62 82/110/62
f 56/83/63 57/82/63 73/116/63 72/117/63
f 67/80/64 52/84/64 68/118/64 83/115/64
f 58/119/65 59/95/65 75/98/65 74/120/65
f 3/42/66 23/41/66 22/2/66 17/1/66
f 11/23/67 97/121/67 98/122/67 18/30/67
f 4/8/68 87/123/68 89/124/68 5/5/68
f 9/19/69 96/125/69 95/126/69 10/32/69
f 2/4/70 84/50/70 86/127/70 17/1/70
f 17/1/71 86/127/71 88/128/71 3/42/71
f 18/30/72 98/122/72 99/129/72 12/47/72
f 6/27/73 19/9/73 90/130/73 92/28/73
f 7/15/74 91/29/74 93/131/74 8/16/74
f 12/47/75 99/129/75 85/132/75 1/44/75
f 5/5/76 89/124/76 90/130/76 19/9/76
f 10/26/77 95/133/77 97/121/77 11/23/77
f 3/42/78 88/128/78 87/134/78 4/39/78
f 8/16/79 93/131/79 94/135/79 14/18/79
f 14/18/80 94/135/80 96/125/80 9/19/80
f 98/122/81 114/136/81 115/137/81 99/129/81
f 89/124/82 105/138/82 106/139/82 90/130/82
f 93/131/83 109/140/83 110/141/83 94/135/83
f 90/130/84 106/139/84 108/142/84 92/28/84
f 96/125/85 112/143/85 111/144/85 95/126/85
f 84/50/86 100/77/86 102/145/86 86/127/86
f 101/76/87 117/146/87 116/147/87 100/77/87
f 95/133/88 111/148/88 113/149/88 97/121/88
f 88/128/89 104/150/89 103/151/89 87/134/89
f 97/121/90 113/149/90 114/136/90 98/122/90
f 89/124/91 87/123/91 103/152/91 105/138/91
f 99/129/92 115/137/92 101/153/92 85/132/92
f 94/135/93 110/141/93 112/143/93 96/125/93
f 92/28/94 108/142/94 107/154/94 91/29/94
f 86/127/95 102/145/95 104/150/95 88/128/95
f 91/29/96 107/154/96 109/140/96 93/131/96
f 111/148/97 127/155/97 129/156/97 113/149/97
f 114/136/98 130/157/98 131/158/98 115/137/98
f 104/150/99 120/159/99 119/160/99 103/151/99
f 113/149/100 129/156/100 130/157/100 114/136/100
f 103/152/101 119/161/101 121/162/101 105/138/101
f 115/137/102 131/158/102 117/163/102 101/153/102
f 105/138/103 121/162/103 122/164/103 106/139/103
f 110/141/104 126/165/104 128/166/104 112/143/104
f 108/142/105 124/167/105 123/168/105 107/154/105
f 104/150/106 102/145/106 118/169/106 120/159/106
f 107/154/107 123/168/107 125/170/107 109/140/107
f 109/140/108 125/170/108 126/165/108 110/141/108
f 106/139/109 122/164/109 124/167/109 108/142/109
f 112/143/110 128/166/110 127/171/110 111/144/110
f 100/77/111 116/147/111 118/169/111 102/145/111
f 129/156/112 145/172/112 146/173/112 130/157/112
f 122/164/113 138/174/113 140/175/113 124/167/113
f 119/161/114 135/176/114 137/177/114 121/162/114
f 131/158/115 147/178/115 133/179/115 117/163/115
f 121/162/116 137/177/116 138/174/116 122/164/116
f 126/165/117 142/180/117 144/181/117 128/166/117
f 124/167/118 140/175/118 139/182/118 123/168/118
f 118/169/119 134/183/119 136/184/119 120/159/119
f 123/168/120 139/182/120 141/185/120 125/170/120
f 131/158/121 130/157/121 146/173/121 147/178/121
f 125/170/122 141/185/122 142/180/122 126/165/122
f 128/166/123 144/181/123 143/186/123 127/171/123
f 116/147/124 132/187/124 134/183/124 118/169/124
f 133/188/125 149/189/125 148/190/125 132/187/125
f 127/155/126 143/191/126 145/172/126 129/156/126
f 120/159/127 136/184/127 135/192/127 119/160/127
f 140/175/128 156/193/128 155/194/128 139/182/128
f 145/172/129 161/195/129 162/196/129 146/173/129
f 134/183/130 150/197/130 152/198/130 136/184/130
f 139/182/131 155/194/131 157/199/131 141/185/131
f 146/173/132 162/196/132 163/200/132 147/178/132
f 141/185/133 157/199/133 158/201/133 142/180/133
f 138/174/134 154/202/134 156/193/134 140/175/134
f 144/181/135 160/203/135 159/204/135 143/186/135
f 132/187/136 148/190/136 150/205/136 134/183/136
f 145/172/137 143/191/137 159/204/137 161/195/137
f 136/184/138 152/198/138 151/206/138 135/192/138
f 135/176/139 151/207/139 153/208/139 137/177/139
f 147/178/140 163/200/140 149/209/140 133/179/140
f 137/177/141 153/208/141 154/202/141 138/174/141
f 142/180/142 158/201/142 160/210/142 144/181/142
f 196/211/143 166/212/143 168/213/143 152/198/143 150/197/143
f 158/201/144 174/214/144 176/215/144 160/210/144
f 155/194/145 171/216/145 173/217/145 157/199/145
f 162/196/146 178/218/146 179/219/146 163/200/146
f 157/199/147 173/217/147 174/220/147 158/201/147
f 154/202/148 170/221/148 172/222/148 156/193/148
f 160/203/149 176/215/149 175/223/149 159/204/149
f 148/190/150 164/224/150 166/225/150 196/226/150 150/205/150
f 159/204/151 175/223/151 177/227/151 161/195/151
f 152/198/152 168/228/152 167/229/152 151/206/152
f 161/195/153 177/227/153 178/218/153 162/196/153
f 151/206/154 167/230/154 169/231/154 153/232/154
f 149/209/155 163/200/155 179/219/155 165/233/155
f 153/208/156 169/234/156 170/221/156 154/202/156
f 156/193/157 172/222/157 171/235/157 155/194/157
f 177/227/158 175/223/158 191/236/158 193/237/158
f 167/230/159 168/213/159 184/238/159 183/239/159
f 178/218/160 177/227/160 193/237/160 194/240/160
f 169/231/161 167/230/161 183/239/161 185/241/161
f 165/233/162 179/219/162 195/242/162 181/243/162
f 170/221/163 169/234/163 185/244/163 186/245/163
f 176/215/164 174/214/164 190/246/164 192/247/164
f 171/235/165 172/222/165 188/248/165 187/249/165
f 168/213/166 166/212/166 182/250/166 184/238/166
f 173/251/167 171/252/167 187/253/167 189/254/167
f 179/219/168 178/218/168 194/240/168 195/242/168
f 174/220/169 173/217/169 189/255/169 190/256/169
f 164/224/170 165/257/170 181/258/170 180/259/170
f 172/222/171 170/221/171 186/245/171 188/248/171
f 175/223/172 176/215/172 192/247/172 191/236/172
f 166/225/173 164/224/173 180/259/173 182/260/173
f 2/4/174 21/3/174 20/43/174 1/48/174
f 117/146/175 133/188/175 132/187/175 116/147/175
f 149/189/176 165/257/176 164/224/176 148/190/176
usemtl Material.002
f 68/261/177 69/262/177 70/263/177 71/264/177 72/265/177 73/266/177 74/267/177 75/268/177 76/269/177 77/270/177 78/271/177 79/272/177 80/273/177 81/274/177 82/275/177 83/276/177
f 180/277/178 181/278/178 195/279/178 194/280/178 193/281/178 191/282/178 192/283/178 190/256/178 189/255/178 187/284/178 188/285/178 186/286/178 185/241/178 183/239/178 184/238/178 182/250/178
